<mxfile host="Electron" agent="Mozilla/5.0 (Windows NT 10.0; Win64; x64) AppleWebKit/537.36 (KHTML, like Gecko) draw.io/26.1.1 Chrome/132.0.6834.210 Electron/34.3.3 Safari/537.36" version="26.1.1" pages="4">
  <diagram id="izT_WN58D6TKjL5LlUxg" name="rate food v0.1">
    <mxGraphModel dx="3216" dy="909" grid="1" gridSize="10" guides="1" tooltips="1" connect="1" arrows="1" fold="1" page="1" pageScale="1" pageWidth="1654" pageHeight="2336" math="0" shadow="0">
      <root>
        <mxCell id="0" />
        <mxCell id="1" parent="0" />
        <mxCell id="prrdyScUi-gLbmqpX3zv-9" value="Rest. Customer" style="shape=umlActor;verticalLabelPosition=bottom;verticalAlign=top;html=1;movable=1;resizable=1;rotatable=1;deletable=1;editable=1;locked=0;connectable=1;labelPosition=center;align=center;textShadow=0;" parent="1" vertex="1">
          <mxGeometry x="-110" y="240" width="40" height="80" as="geometry" />
        </mxCell>
        <mxCell id="prrdyScUi-gLbmqpX3zv-10" value="Homepage Screen" style="shape=umlBoundary;whiteSpace=wrap;html=1;" parent="1" vertex="1">
          <mxGeometry x="200" y="240" width="100" height="80" as="geometry" />
        </mxCell>
        <mxCell id="prrdyScUi-gLbmqpX3zv-20" value="" style="edgeStyle=orthogonalEdgeStyle;rounded=0;orthogonalLoop=1;jettySize=auto;html=1;" parent="1" source="prrdyScUi-gLbmqpX3zv-17" target="prrdyScUi-gLbmqpX3zv-19" edge="1">
          <mxGeometry relative="1" as="geometry" />
        </mxCell>
        <mxCell id="prrdyScUi-gLbmqpX3zv-17" value="Select Dish" style="ellipse;shape=umlControl;whiteSpace=wrap;html=1;" parent="1" vertex="1">
          <mxGeometry x="580" y="110" width="70" height="80" as="geometry" />
        </mxCell>
        <mxCell id="prrdyScUi-gLbmqpX3zv-18" style="edgeStyle=orthogonalEdgeStyle;rounded=0;orthogonalLoop=1;jettySize=auto;html=1;entryX=-0.026;entryY=0.5;entryDx=0;entryDy=0;entryPerimeter=0;" parent="1" target="prrdyScUi-gLbmqpX3zv-17" edge="1">
          <mxGeometry relative="1" as="geometry">
            <mxPoint x="490" y="150" as="sourcePoint" />
          </mxGeometry>
        </mxCell>
        <mxCell id="prrdyScUi-gLbmqpX3zv-67" style="edgeStyle=orthogonalEdgeStyle;rounded=0;orthogonalLoop=1;jettySize=auto;html=1;entryX=0.501;entryY=0.117;entryDx=0;entryDy=0;entryPerimeter=0;" parent="1" source="prrdyScUi-gLbmqpX3zv-19" target="prrdyScUi-gLbmqpX3zv-105" edge="1">
          <mxGeometry relative="1" as="geometry">
            <mxPoint x="785.0000000000005" y="229.9999999999999" as="targetPoint" />
          </mxGeometry>
        </mxCell>
        <mxCell id="prrdyScUi-gLbmqpX3zv-19" value="Place Order" style="ellipse;shape=umlControl;whiteSpace=wrap;html=1;" parent="1" vertex="1">
          <mxGeometry x="750" y="110" width="70" height="80" as="geometry" />
        </mxCell>
        <mxCell id="prrdyScUi-gLbmqpX3zv-23" style="edgeStyle=orthogonalEdgeStyle;rounded=0;orthogonalLoop=1;jettySize=auto;html=1;" parent="1" target="prrdyScUi-gLbmqpX3zv-25" edge="1">
          <mxGeometry relative="1" as="geometry">
            <mxPoint x="630" y="270" as="targetPoint" />
            <mxPoint x="750" y="270" as="sourcePoint" />
          </mxGeometry>
        </mxCell>
        <mxCell id="prrdyScUi-gLbmqpX3zv-24" value="No" style="text;html=1;align=center;verticalAlign=middle;whiteSpace=wrap;rounded=0;" parent="1" vertex="1">
          <mxGeometry x="660" y="240" width="60" height="30" as="geometry" />
        </mxCell>
        <mxCell id="prrdyScUi-gLbmqpX3zv-25" value="Show" style="ellipse;shape=umlControl;whiteSpace=wrap;html=1;" parent="1" vertex="1">
          <mxGeometry x="540" y="230" width="70" height="80" as="geometry" />
        </mxCell>
        <mxCell id="prrdyScUi-gLbmqpX3zv-33" style="edgeStyle=orthogonalEdgeStyle;rounded=0;orthogonalLoop=1;jettySize=auto;html=1;entryX=0.289;entryY=0.225;entryDx=0;entryDy=0;entryPerimeter=0;" parent="1" source="prrdyScUi-gLbmqpX3zv-10" edge="1">
          <mxGeometry relative="1" as="geometry">
            <mxPoint x="250.23000000000002" y="468" as="targetPoint" />
          </mxGeometry>
        </mxCell>
        <mxCell id="prrdyScUi-gLbmqpX3zv-38" value="Yes" style="text;html=1;align=center;verticalAlign=middle;whiteSpace=wrap;rounded=0;" parent="1" vertex="1">
          <mxGeometry x="790" y="330" width="60" height="30" as="geometry" />
        </mxCell>
        <mxCell id="prrdyScUi-gLbmqpX3zv-40" value="Copy the name of the dish that the customer successfully ordered" style="text;html=1;align=center;verticalAlign=middle;whiteSpace=wrap;rounded=0;" parent="1" vertex="1">
          <mxGeometry x="459.96" y="560" width="140" height="30" as="geometry" />
        </mxCell>
        <mxCell id="prrdyScUi-gLbmqpX3zv-41" value="Order Food Screen" style="shape=umlBoundary;whiteSpace=wrap;html=1;" parent="1" vertex="1">
          <mxGeometry x="410" y="110" width="100" height="80" as="geometry" />
        </mxCell>
        <mxCell id="prrdyScUi-gLbmqpX3zv-45" value="" style="endArrow=classic;html=1;rounded=0;" parent="1" edge="1">
          <mxGeometry width="50" height="50" relative="1" as="geometry">
            <mxPoint x="260" y="149.5" as="sourcePoint" />
            <mxPoint x="410" y="149.5" as="targetPoint" />
          </mxGeometry>
        </mxCell>
        <mxCell id="prrdyScUi-gLbmqpX3zv-46" value="" style="endArrow=none;html=1;rounded=0;exitX=0.598;exitY=0;exitDx=0;exitDy=0;exitPerimeter=0;" parent="1" source="prrdyScUi-gLbmqpX3zv-10" edge="1">
          <mxGeometry width="50" height="50" relative="1" as="geometry">
            <mxPoint x="210" y="200" as="sourcePoint" />
            <mxPoint x="260" y="150" as="targetPoint" />
          </mxGeometry>
        </mxCell>
        <mxCell id="prrdyScUi-gLbmqpX3zv-47" value="Rate Food Screen" style="shape=umlBoundary;whiteSpace=wrap;html=1;rotation=0;" parent="1" vertex="1">
          <mxGeometry x="200" y="470" width="100" height="80" as="geometry" />
        </mxCell>
        <mxCell id="prrdyScUi-gLbmqpX3zv-50" style="edgeStyle=orthogonalEdgeStyle;rounded=0;orthogonalLoop=1;jettySize=auto;html=1;entryX=-0.03;entryY=0.51;entryDx=0;entryDy=0;entryPerimeter=0;" parent="1" source="prrdyScUi-gLbmqpX3zv-9" target="prrdyScUi-gLbmqpX3zv-10" edge="1">
          <mxGeometry relative="1" as="geometry" />
        </mxCell>
        <mxCell id="prrdyScUi-gLbmqpX3zv-86" style="edgeStyle=orthogonalEdgeStyle;rounded=0;orthogonalLoop=1;jettySize=auto;html=1;entryX=0;entryY=0.5;entryDx=0;entryDy=0;" parent="1" edge="1">
          <mxGeometry relative="1" as="geometry">
            <mxPoint x="299.9599824999955" y="710" as="sourcePoint" />
            <mxPoint x="370" y="710.0799999999999" as="targetPoint" />
          </mxGeometry>
        </mxCell>
        <mxCell id="prrdyScUi-gLbmqpX3zv-56" value="" style="endArrow=classic;html=1;rounded=0;" parent="1" edge="1">
          <mxGeometry width="50" height="50" relative="1" as="geometry">
            <mxPoint x="259.96" y="600.04" as="sourcePoint" />
            <mxPoint x="259.96" y="670.04" as="targetPoint" />
          </mxGeometry>
        </mxCell>
        <mxCell id="prrdyScUi-gLbmqpX3zv-57" style="edgeStyle=orthogonalEdgeStyle;rounded=0;orthogonalLoop=1;jettySize=auto;html=1;entryX=0;entryY=0.625;entryDx=0;entryDy=0;entryPerimeter=0;" parent="1" edge="1">
          <mxGeometry relative="1" as="geometry">
            <mxPoint x="249.96448275862093" y="550.04" as="sourcePoint" />
            <mxPoint x="229.96000000000004" y="720.04" as="targetPoint" />
            <Array as="points">
              <mxPoint x="209.96" y="550.04" />
              <mxPoint x="209.96" y="720.04" />
            </Array>
          </mxGeometry>
        </mxCell>
        <mxCell id="prrdyScUi-gLbmqpX3zv-60" value="Rate food" style="ellipse;shape=umlControl;whiteSpace=wrap;html=1;" parent="1" vertex="1">
          <mxGeometry x="519.98" y="670.0799999999999" width="70" height="80" as="geometry" />
        </mxCell>
        <mxCell id="prrdyScUi-gLbmqpX3zv-68" value="" style="endArrow=none;html=1;rounded=0;movable=1;resizable=1;rotatable=1;deletable=1;editable=1;locked=0;connectable=1;" parent="1" edge="1">
          <mxGeometry width="50" height="50" relative="1" as="geometry">
            <mxPoint x="260" y="600.04" as="sourcePoint" />
            <mxPoint x="790" y="600.04" as="targetPoint" />
          </mxGeometry>
        </mxCell>
        <mxCell id="prrdyScUi-gLbmqpX3zv-72" value="" style="endArrow=none;html=1;rounded=0;" parent="1" edge="1">
          <mxGeometry width="50" height="50" relative="1" as="geometry">
            <mxPoint x="785" y="600" as="sourcePoint" />
            <mxPoint x="784.79" y="310" as="targetPoint" />
          </mxGeometry>
        </mxCell>
        <mxCell id="prrdyScUi-gLbmqpX3zv-82" value="&lt;font style=&quot;font-size: 10px;&quot;&gt;Error Message; Return to Homescreen&lt;/font&gt;" style="shape=umlBoundary;whiteSpace=wrap;html=1;fillColor=#e51400;fontColor=#ffffff;strokeColor=#B20000;" parent="1" vertex="1">
          <mxGeometry x="380" y="240" width="100" height="80" as="geometry" />
        </mxCell>
        <mxCell id="prrdyScUi-gLbmqpX3zv-83" style="edgeStyle=orthogonalEdgeStyle;rounded=0;orthogonalLoop=1;jettySize=auto;html=1;entryX=1;entryY=0.375;entryDx=0;entryDy=0;entryPerimeter=0;" parent="1" source="prrdyScUi-gLbmqpX3zv-25" target="prrdyScUi-gLbmqpX3zv-82" edge="1">
          <mxGeometry relative="1" as="geometry" />
        </mxCell>
        <mxCell id="prrdyScUi-gLbmqpX3zv-87" style="edgeStyle=orthogonalEdgeStyle;rounded=0;orthogonalLoop=1;jettySize=auto;html=1;entryX=-0.002;entryY=0.508;entryDx=0;entryDy=0;entryPerimeter=0;" parent="1" source="prrdyScUi-gLbmqpX3zv-106" target="prrdyScUi-gLbmqpX3zv-60" edge="1">
          <mxGeometry relative="1" as="geometry">
            <mxPoint x="449.9765517241376" y="710.1034482758621" as="sourcePoint" />
          </mxGeometry>
        </mxCell>
        <mxCell id="prrdyScUi-gLbmqpX3zv-88" value="No" style="text;html=1;align=center;verticalAlign=middle;whiteSpace=wrap;rounded=0;" parent="1" vertex="1">
          <mxGeometry x="470" y="680" width="20" height="30" as="geometry" />
        </mxCell>
        <mxCell id="prrdyScUi-gLbmqpX3zv-89" style="edgeStyle=orthogonalEdgeStyle;rounded=0;orthogonalLoop=1;jettySize=auto;html=1;entryX=0.286;entryY=0.999;entryDx=0;entryDy=0;entryPerimeter=0;" parent="1" edge="1">
          <mxGeometry relative="1" as="geometry">
            <mxPoint x="-55.019999999999996" y="279.9565217391305" as="sourcePoint" />
            <mxPoint x="554.98" y="749.9999999999998" as="targetPoint" />
            <Array as="points">
              <mxPoint x="40" y="280" />
              <mxPoint x="40" y="840" />
              <mxPoint x="555" y="840" />
            </Array>
          </mxGeometry>
        </mxCell>
        <mxCell id="prrdyScUi-gLbmqpX3zv-91" value="Yes" style="text;html=1;align=center;verticalAlign=middle;whiteSpace=wrap;rounded=0;" parent="1" vertex="1">
          <mxGeometry x="355" y="780" width="20" height="30" as="geometry" />
        </mxCell>
        <mxCell id="prrdyScUi-gLbmqpX3zv-103" value="List of Dishes" style="ellipse;shape=umlEntity;whiteSpace=wrap;html=1;" parent="1" vertex="1">
          <mxGeometry x="575" width="80" height="80" as="geometry" />
        </mxCell>
        <mxCell id="prrdyScUi-gLbmqpX3zv-104" value="" style="endArrow=none;html=1;rounded=0;exitX=0.495;exitY=0.12;exitDx=0;exitDy=0;exitPerimeter=0;" parent="1" source="prrdyScUi-gLbmqpX3zv-17" edge="1">
          <mxGeometry width="50" height="50" relative="1" as="geometry">
            <mxPoint x="615" y="110" as="sourcePoint" />
            <mxPoint x="614.66" y="80" as="targetPoint" />
          </mxGeometry>
        </mxCell>
        <mxCell id="prrdyScUi-gLbmqpX3zv-105" value="&lt;font style=&quot;font-size: 10px;&quot;&gt;Was the order successful?&lt;/font&gt;" style="ellipse;shape=umlControl;whiteSpace=wrap;html=1;" parent="1" vertex="1">
          <mxGeometry x="750" y="230" width="70" height="80" as="geometry" />
        </mxCell>
        <mxCell id="prrdyScUi-gLbmqpX3zv-106" value="Blank Page ?" style="ellipse;shape=umlControl;whiteSpace=wrap;html=1;" parent="1" vertex="1">
          <mxGeometry x="375" y="670" width="70" height="80" as="geometry" />
        </mxCell>
        <mxCell id="prrdyScUi-gLbmqpX3zv-107" value="Stop" style="ellipse;shape=umlControl;whiteSpace=wrap;html=1;fillColor=#e51400;fontColor=#ffffff;strokeColor=#B20000;" parent="1" vertex="1">
          <mxGeometry x="380" y="880" width="70" height="80" as="geometry" />
        </mxCell>
        <mxCell id="prrdyScUi-gLbmqpX3zv-109" style="edgeStyle=orthogonalEdgeStyle;rounded=0;orthogonalLoop=1;jettySize=auto;html=1;entryX=0.215;entryY=0.233;entryDx=0;entryDy=0;entryPerimeter=0;" parent="1" source="prrdyScUi-gLbmqpX3zv-106" target="prrdyScUi-gLbmqpX3zv-107" edge="1">
          <mxGeometry relative="1" as="geometry" />
        </mxCell>
        <mxCell id="prrdyScUi-gLbmqpX3zv-110" value="&lt;span style=&quot;font-size: 10px;&quot;&gt;List of completed orders (Name of each dish)&lt;/span&gt;" style="ellipse;shape=umlEntity;whiteSpace=wrap;html=1;" parent="1" vertex="1">
          <mxGeometry x="230" y="670" width="80" height="80" as="geometry" />
        </mxCell>
        <mxCell id="prrdyScUi-gLbmqpX3zv-111" value="Redirect" style="html=1;verticalAlign=bottom;endArrow=open;dashed=1;endSize=8;curved=0;rounded=0;" parent="1" edge="1">
          <mxGeometry relative="1" as="geometry">
            <mxPoint x="380" y="279.85" as="sourcePoint" />
            <mxPoint x="300" y="279.85" as="targetPoint" />
          </mxGeometry>
        </mxCell>
        <mxCell id="vPGyxvh9auex-Hv5muFX-59" style="edgeStyle=orthogonalEdgeStyle;rounded=0;orthogonalLoop=1;jettySize=auto;html=1;" parent="1" source="vPGyxvh9auex-Hv5muFX-4" edge="1">
          <mxGeometry relative="1" as="geometry">
            <mxPoint x="640" y="1479.9499999999998" as="targetPoint" />
          </mxGeometry>
        </mxCell>
        <mxCell id="vPGyxvh9auex-Hv5muFX-4" value="Rest. Customer" style="shape=umlActor;verticalLabelPosition=bottom;verticalAlign=top;html=1;movable=1;resizable=1;rotatable=1;deletable=1;editable=1;locked=0;connectable=1;labelPosition=center;align=center;textShadow=0;" parent="1" vertex="1">
          <mxGeometry x="360" y="1439.95" width="40" height="80" as="geometry" />
        </mxCell>
        <mxCell id="vPGyxvh9auex-Hv5muFX-7" value="Rate Food Screen" style="shape=umlBoundary;whiteSpace=wrap;html=1;rotation=0;" parent="1" vertex="1">
          <mxGeometry x="650" y="1439.95" width="100" height="80" as="geometry" />
        </mxCell>
        <mxCell id="vPGyxvh9auex-Hv5muFX-9" value="Dish Selector" style="ellipse;shape=umlControl;whiteSpace=wrap;html=1;" parent="1" vertex="1">
          <mxGeometry x="860" y="1439.95" width="70" height="80" as="geometry" />
        </mxCell>
        <mxCell id="vPGyxvh9auex-Hv5muFX-10" style="edgeStyle=orthogonalEdgeStyle;rounded=0;orthogonalLoop=1;jettySize=auto;html=1;entryX=-0.04;entryY=0.501;entryDx=0;entryDy=0;entryPerimeter=0;" parent="1" source="vPGyxvh9auex-Hv5muFX-7" target="vPGyxvh9auex-Hv5muFX-9" edge="1">
          <mxGeometry relative="1" as="geometry" />
        </mxCell>
        <mxCell id="vPGyxvh9auex-Hv5muFX-11" value="List of Dishes" style="ellipse;shape=umlEntity;whiteSpace=wrap;html=1;" parent="1" vertex="1">
          <mxGeometry x="855" y="1319.95" width="80" height="80" as="geometry" />
        </mxCell>
        <mxCell id="vPGyxvh9auex-Hv5muFX-13" value="" style="endArrow=none;html=1;rounded=0;" parent="1" edge="1">
          <mxGeometry width="50" height="50" relative="1" as="geometry">
            <mxPoint x="895" y="1449.95" as="sourcePoint" />
            <mxPoint x="894.71" y="1399.95" as="targetPoint" />
          </mxGeometry>
        </mxCell>
        <mxCell id="vPGyxvh9auex-Hv5muFX-14" value="Rating Selector" style="ellipse;shape=umlControl;whiteSpace=wrap;html=1;" parent="1" vertex="1">
          <mxGeometry x="1060" y="1439.95" width="70" height="80" as="geometry" />
        </mxCell>
        <mxCell id="vPGyxvh9auex-Hv5muFX-15" style="edgeStyle=orthogonalEdgeStyle;rounded=0;orthogonalLoop=1;jettySize=auto;html=1;entryX=0;entryY=0.5;entryDx=0;entryDy=0;entryPerimeter=0;" parent="1" source="vPGyxvh9auex-Hv5muFX-9" target="vPGyxvh9auex-Hv5muFX-14" edge="1">
          <mxGeometry relative="1" as="geometry" />
        </mxCell>
        <mxCell id="vPGyxvh9auex-Hv5muFX-16" value="List of Ratings (1/2/3 Stars)" style="ellipse;shape=umlEntity;whiteSpace=wrap;html=1;" parent="1" vertex="1">
          <mxGeometry x="1055" y="1319.95" width="80" height="80" as="geometry" />
        </mxCell>
        <mxCell id="vPGyxvh9auex-Hv5muFX-17" value="" style="endArrow=none;html=1;rounded=0;" parent="1" edge="1">
          <mxGeometry width="50" height="50" relative="1" as="geometry">
            <mxPoint x="1094.79" y="1449.95" as="sourcePoint" />
            <mxPoint x="1094.5" y="1399.95" as="targetPoint" />
          </mxGeometry>
        </mxCell>
        <mxCell id="vPGyxvh9auex-Hv5muFX-18" value="Has the user chosen everything correctly?" style="ellipse;shape=umlControl;whiteSpace=wrap;html=1;fillColor=#e51400;fontColor=#ffffff;strokeColor=#B20000;" parent="1" vertex="1">
          <mxGeometry x="1065" y="1609.95" width="70" height="80" as="geometry" />
        </mxCell>
        <mxCell id="vPGyxvh9auex-Hv5muFX-19" style="edgeStyle=orthogonalEdgeStyle;rounded=0;orthogonalLoop=1;jettySize=auto;html=1;entryX=0.432;entryY=0.077;entryDx=0;entryDy=0;entryPerimeter=0;" parent="1" source="vPGyxvh9auex-Hv5muFX-14" target="vPGyxvh9auex-Hv5muFX-18" edge="1">
          <mxGeometry relative="1" as="geometry" />
        </mxCell>
        <mxCell id="vPGyxvh9auex-Hv5muFX-26" value="Yes" style="text;html=1;align=center;verticalAlign=middle;resizable=0;points=[];autosize=1;strokeColor=none;fillColor=none;" parent="1" vertex="1">
          <mxGeometry x="1110" y="1700.05" width="40" height="30" as="geometry" />
        </mxCell>
        <mxCell id="vPGyxvh9auex-Hv5muFX-31" value="&lt;font style=&quot;font-size: 11px;&quot;&gt;&quot;Rate Food&quot; Selection&lt;/font&gt;" style="text;html=1;align=center;verticalAlign=middle;resizable=0;points=[];autosize=1;strokeColor=none;fillColor=none;" parent="1" vertex="1">
          <mxGeometry x="500" y="1480" width="130" height="30" as="geometry" />
        </mxCell>
        <mxCell id="vPGyxvh9auex-Hv5muFX-33" value="Loop back to let user rate another dish" style="text;align=center;verticalAlign=middle;resizable=0;points=[];autosize=1;strokeColor=none;fillColor=none;textShadow=0;labelBorderColor=none;labelBackgroundColor=none;imageWidth=20;imageHeight=24;arcSize=12;rotation=-90;" parent="1" vertex="1">
          <mxGeometry x="1260" y="1540" width="230" height="30" as="geometry" />
        </mxCell>
        <mxCell id="vPGyxvh9auex-Hv5muFX-35" value="No" style="text;html=1;align=center;verticalAlign=middle;resizable=0;points=[];autosize=1;strokeColor=none;fillColor=none;" parent="1" vertex="1">
          <mxGeometry x="1020" y="1620" width="40" height="30" as="geometry" />
        </mxCell>
        <mxCell id="vPGyxvh9auex-Hv5muFX-36" value="Rating Controller" style="ellipse;shape=umlControl;whiteSpace=wrap;html=1;" parent="1" vertex="1">
          <mxGeometry x="1065" y="1790" width="70" height="80" as="geometry" />
        </mxCell>
        <mxCell id="vPGyxvh9auex-Hv5muFX-38" style="edgeStyle=orthogonalEdgeStyle;rounded=0;orthogonalLoop=1;jettySize=auto;html=1;entryX=0.495;entryY=0.037;entryDx=0;entryDy=0;entryPerimeter=0;" parent="1" source="vPGyxvh9auex-Hv5muFX-18" target="vPGyxvh9auex-Hv5muFX-36" edge="1">
          <mxGeometry relative="1" as="geometry" />
        </mxCell>
        <mxCell id="vPGyxvh9auex-Hv5muFX-40" value="&lt;span style=&quot;font-size: 10px;&quot;&gt;&lt;font style=&quot;color: rgb(255, 255, 255);&quot;&gt;Error Msg &quot;Can&#39;t rate dish. Please review your selections&quot;&lt;/font&gt;&lt;/span&gt;" style="shape=umlBoundary;whiteSpace=wrap;html=1;fillColor=#e51400;fontColor=#ffffff;strokeColor=#B20000;" parent="1" vertex="1">
          <mxGeometry x="640" y="1609.95" width="110" height="90.1" as="geometry" />
        </mxCell>
        <mxCell id="vPGyxvh9auex-Hv5muFX-46" value="No" style="text;html=1;align=center;verticalAlign=middle;resizable=0;points=[];autosize=1;strokeColor=none;fillColor=none;" parent="1" vertex="1">
          <mxGeometry x="1150" y="1960" width="40" height="30" as="geometry" />
        </mxCell>
        <mxCell id="vPGyxvh9auex-Hv5muFX-48" value="Yes" style="text;html=1;align=center;verticalAlign=middle;resizable=0;points=[];autosize=1;strokeColor=none;fillColor=none;" parent="1" vertex="1">
          <mxGeometry x="1025" y="1970" width="40" height="30" as="geometry" />
        </mxCell>
        <mxCell id="vPGyxvh9auex-Hv5muFX-51" value="Show" style="ellipse;shape=umlControl;whiteSpace=wrap;html=1;fillColor=#e51400;fontColor=#ffffff;strokeColor=#B20000;" parent="1" vertex="1">
          <mxGeometry x="865" y="1609.95" width="70" height="80" as="geometry" />
        </mxCell>
        <mxCell id="vPGyxvh9auex-Hv5muFX-52" style="edgeStyle=orthogonalEdgeStyle;rounded=0;orthogonalLoop=1;jettySize=auto;html=1;entryX=0.969;entryY=0.506;entryDx=0;entryDy=0;entryPerimeter=0;fillColor=#e51400;strokeColor=#B20000;" parent="1" source="vPGyxvh9auex-Hv5muFX-18" target="vPGyxvh9auex-Hv5muFX-51" edge="1">
          <mxGeometry relative="1" as="geometry" />
        </mxCell>
        <mxCell id="vPGyxvh9auex-Hv5muFX-54" style="edgeStyle=orthogonalEdgeStyle;rounded=0;orthogonalLoop=1;jettySize=auto;html=1;fillColor=#e51400;strokeColor=#B20000;" parent="1" source="vPGyxvh9auex-Hv5muFX-51" edge="1">
          <mxGeometry relative="1" as="geometry">
            <mxPoint x="750" y="1650" as="targetPoint" />
          </mxGeometry>
        </mxCell>
        <mxCell id="vPGyxvh9auex-Hv5muFX-56" value="Show&lt;div&gt;&quot;Are you done with rating ?&lt;/div&gt;" style="ellipse;shape=umlControl;whiteSpace=wrap;html=1;fillColor=#e51400;fontColor=#ffffff;strokeColor=#B20000;" parent="1" vertex="1">
          <mxGeometry x="1065" y="1960" width="70" height="80" as="geometry" />
        </mxCell>
        <mxCell id="vPGyxvh9auex-Hv5muFX-57" style="edgeStyle=orthogonalEdgeStyle;rounded=0;orthogonalLoop=1;jettySize=auto;html=1;entryX=0.51;entryY=0.02;entryDx=0;entryDy=0;entryPerimeter=0;" parent="1" source="vPGyxvh9auex-Hv5muFX-36" target="vPGyxvh9auex-Hv5muFX-56" edge="1">
          <mxGeometry relative="1" as="geometry" />
        </mxCell>
        <mxCell id="vPGyxvh9auex-Hv5muFX-60" style="edgeStyle=orthogonalEdgeStyle;rounded=0;orthogonalLoop=1;jettySize=auto;html=1;entryX=0.575;entryY=0.006;entryDx=0;entryDy=0;entryPerimeter=0;fillColor=#e51400;strokeColor=#B20000;" parent="1" source="vPGyxvh9auex-Hv5muFX-56" target="vPGyxvh9auex-Hv5muFX-7" edge="1">
          <mxGeometry relative="1" as="geometry">
            <Array as="points">
              <mxPoint x="1400" y="2000" />
              <mxPoint x="1400" y="1230" />
              <mxPoint x="708" y="1230" />
            </Array>
          </mxGeometry>
        </mxCell>
        <mxCell id="vPGyxvh9auex-Hv5muFX-61" value="Await correct input" style="ellipse;shape=umlControl;whiteSpace=wrap;html=1;fillColor=#e51400;fontColor=#ffffff;strokeColor=#B20000;" parent="1" vertex="1">
          <mxGeometry x="670" y="1790" width="70" height="80" as="geometry" />
        </mxCell>
        <mxCell id="vPGyxvh9auex-Hv5muFX-63" style="edgeStyle=orthogonalEdgeStyle;rounded=0;orthogonalLoop=1;jettySize=auto;html=1;entryX=0.344;entryY=0.12;entryDx=0;entryDy=0;entryPerimeter=0;fillColor=#e51400;strokeColor=#B20000;" parent="1" source="vPGyxvh9auex-Hv5muFX-40" target="vPGyxvh9auex-Hv5muFX-61" edge="1">
          <mxGeometry relative="1" as="geometry" />
        </mxCell>
        <mxCell id="vPGyxvh9auex-Hv5muFX-64" value="HomeScreen" style="shape=umlBoundary;whiteSpace=wrap;html=1;rotation=0;" parent="1" vertex="1">
          <mxGeometry x="650" y="1960" width="100" height="80" as="geometry" />
        </mxCell>
        <mxCell id="vPGyxvh9auex-Hv5muFX-65" style="edgeStyle=orthogonalEdgeStyle;rounded=0;orthogonalLoop=1;jettySize=auto;html=1;entryX=1.004;entryY=0.5;entryDx=0;entryDy=0;entryPerimeter=0;dashed=1;" parent="1" source="vPGyxvh9auex-Hv5muFX-56" target="vPGyxvh9auex-Hv5muFX-64" edge="1">
          <mxGeometry relative="1" as="geometry" />
        </mxCell>
        <mxCell id="vPGyxvh9auex-Hv5muFX-66" value="Redirect" style="edgeLabel;html=1;align=center;verticalAlign=middle;resizable=0;points=[];" parent="vPGyxvh9auex-Hv5muFX-65" vertex="1" connectable="0">
          <mxGeometry x="0.1596" y="1" relative="1" as="geometry">
            <mxPoint as="offset" />
          </mxGeometry>
        </mxCell>
        <mxCell id="vPGyxvh9auex-Hv5muFX-67" style="edgeStyle=orthogonalEdgeStyle;rounded=0;orthogonalLoop=1;jettySize=auto;html=1;entryX=0.514;entryY=1.001;entryDx=0;entryDy=0;entryPerimeter=0;fillColor=#e51400;strokeColor=#B20000;" parent="1" source="vPGyxvh9auex-Hv5muFX-61" target="vPGyxvh9auex-Hv5muFX-9" edge="1">
          <mxGeometry relative="1" as="geometry">
            <Array as="points">
              <mxPoint x="560" y="1830" />
              <mxPoint x="560" y="1570" />
              <mxPoint x="896" y="1570" />
            </Array>
          </mxGeometry>
        </mxCell>
        <mxCell id="vPGyxvh9auex-Hv5muFX-68" style="edgeStyle=orthogonalEdgeStyle;rounded=0;orthogonalLoop=1;jettySize=auto;html=1;fillColor=#e51400;strokeColor=#B20000;" parent="1" source="vPGyxvh9auex-Hv5muFX-61" target="vPGyxvh9auex-Hv5muFX-14" edge="1">
          <mxGeometry relative="1" as="geometry">
            <Array as="points">
              <mxPoint x="560" y="1830" />
              <mxPoint x="560" y="1570" />
              <mxPoint x="1069" y="1570" />
            </Array>
          </mxGeometry>
        </mxCell>
        <mxCell id="vPGyxvh9auex-Hv5muFX-69" value="&lt;span style=&quot;color: rgb(0, 0, 0); font-family: Helvetica; font-size: 12px; font-style: normal; font-variant-ligatures: normal; font-variant-caps: normal; font-weight: 400; letter-spacing: normal; orphans: 2; text-align: center; text-indent: 0px; text-transform: none; widows: 2; word-spacing: 0px; -webkit-text-stroke-width: 0px; white-space: nowrap; background-color: rgb(251, 251, 251); text-decoration-thickness: initial; text-decoration-style: initial; text-decoration-color: initial; display: inline !important; float: none;&quot;&gt;Loop back to let user change things&lt;/span&gt;" style="text;whiteSpace=wrap;html=1;rotation=0;" parent="1" vertex="1">
          <mxGeometry x="480" y="1839.95" width="190" height="30.05" as="geometry" />
        </mxCell>
      </root>
    </mxGraphModel>
  </diagram>
  <diagram id="HIhAFJWrqpN9ILCBA0oH" name="WRONG: register v0.1">
    <mxGraphModel dx="1838" dy="1069" grid="1" gridSize="10" guides="1" tooltips="1" connect="1" arrows="1" fold="1" page="1" pageScale="1" pageWidth="3300" pageHeight="4681" math="0" shadow="0">
      <root>
        <mxCell id="0" />
        <mxCell id="1" parent="0" />
        <mxCell id="8b_EzW5nCd0KgZcIu2Tj-1" value="User" style="shape=umlActor;verticalLabelPosition=bottom;verticalAlign=top;html=1;outlineConnect=0;" parent="1" vertex="1">
          <mxGeometry x="80" y="820" width="60" height="100" as="geometry" />
        </mxCell>
        <mxCell id="8b_EzW5nCd0KgZcIu2Tj-2" value="Create Profile Screen" style="shape=umlBoundary;whiteSpace=wrap;html=1;" parent="1" vertex="1">
          <mxGeometry x="480" y="830" width="100" height="80" as="geometry" />
        </mxCell>
        <mxCell id="8b_EzW5nCd0KgZcIu2Tj-4" value="enter mobile number" style="ellipse;shape=umlControl;whiteSpace=wrap;html=1;" parent="1" vertex="1">
          <mxGeometry x="690" y="830" width="70" height="80" as="geometry" />
        </mxCell>
        <mxCell id="8b_EzW5nCd0KgZcIu2Tj-5" value="Enter username" style="ellipse;shape=umlControl;whiteSpace=wrap;html=1;" parent="1" vertex="1">
          <mxGeometry x="1040" y="830" width="70" height="80" as="geometry" />
        </mxCell>
        <mxCell id="8b_EzW5nCd0KgZcIu2Tj-6" value="Upload Profile Picture" style="ellipse;shape=umlControl;whiteSpace=wrap;html=1;" parent="1" vertex="1">
          <mxGeometry x="1420" y="830" width="70" height="80" as="geometry" />
        </mxCell>
        <mxCell id="8b_EzW5nCd0KgZcIu2Tj-7" style="edgeStyle=orthogonalEdgeStyle;rounded=0;orthogonalLoop=1;jettySize=auto;html=1;entryX=0.071;entryY=0.5;entryDx=0;entryDy=0;entryPerimeter=0;" parent="1" source="8b_EzW5nCd0KgZcIu2Tj-2" target="8b_EzW5nCd0KgZcIu2Tj-4" edge="1">
          <mxGeometry relative="1" as="geometry" />
        </mxCell>
        <mxCell id="8b_EzW5nCd0KgZcIu2Tj-13" style="edgeStyle=orthogonalEdgeStyle;rounded=0;orthogonalLoop=1;jettySize=auto;html=1;entryX=0.489;entryY=0.119;entryDx=0;entryDy=0;entryPerimeter=0;" parent="1" source="8b_EzW5nCd0KgZcIu2Tj-10" target="8b_EzW5nCd0KgZcIu2Tj-17" edge="1">
          <mxGeometry relative="1" as="geometry">
            <mxPoint x="905" y="1100" as="targetPoint" />
          </mxGeometry>
        </mxCell>
        <mxCell id="8b_EzW5nCd0KgZcIu2Tj-10" value="mobile number exist ?" style="ellipse;shape=umlControl;whiteSpace=wrap;html=1;" parent="1" vertex="1">
          <mxGeometry x="870" y="830" width="70" height="80" as="geometry" />
        </mxCell>
        <mxCell id="8b_EzW5nCd0KgZcIu2Tj-11" style="edgeStyle=orthogonalEdgeStyle;rounded=0;orthogonalLoop=1;jettySize=auto;html=1;entryX=0.049;entryY=0.5;entryDx=0;entryDy=0;entryPerimeter=0;" parent="1" source="8b_EzW5nCd0KgZcIu2Tj-4" target="8b_EzW5nCd0KgZcIu2Tj-10" edge="1">
          <mxGeometry relative="1" as="geometry" />
        </mxCell>
        <mxCell id="8b_EzW5nCd0KgZcIu2Tj-12" style="edgeStyle=orthogonalEdgeStyle;rounded=0;orthogonalLoop=1;jettySize=auto;html=1;entryX=0.009;entryY=0.49;entryDx=0;entryDy=0;entryPerimeter=0;" parent="1" source="8b_EzW5nCd0KgZcIu2Tj-10" target="8b_EzW5nCd0KgZcIu2Tj-5" edge="1">
          <mxGeometry relative="1" as="geometry" />
        </mxCell>
        <mxCell id="8b_EzW5nCd0KgZcIu2Tj-14" value="No" style="text;html=1;align=center;verticalAlign=middle;whiteSpace=wrap;rounded=0;" parent="1" vertex="1">
          <mxGeometry x="950" y="840" width="60" height="30" as="geometry" />
        </mxCell>
        <mxCell id="8b_EzW5nCd0KgZcIu2Tj-16" value="Yes" style="text;html=1;align=center;verticalAlign=middle;whiteSpace=wrap;rounded=0;" parent="1" vertex="1">
          <mxGeometry x="840" y="950" width="60" height="30" as="geometry" />
        </mxCell>
        <mxCell id="8b_EzW5nCd0KgZcIu2Tj-17" value="Show" style="ellipse;shape=umlControl;whiteSpace=wrap;html=1;" parent="1" vertex="1">
          <mxGeometry x="870" y="1110" width="70" height="80" as="geometry" />
        </mxCell>
        <mxCell id="8b_EzW5nCd0KgZcIu2Tj-18" value="Error Message. User already exists" style="ellipse;shape=umlControl;whiteSpace=wrap;html=1;fillColor=#e51400;fontColor=#ffffff;strokeColor=#B20000;" parent="1" vertex="1">
          <mxGeometry x="700" y="1110" width="70" height="80" as="geometry" />
        </mxCell>
        <mxCell id="8b_EzW5nCd0KgZcIu2Tj-19" style="edgeStyle=orthogonalEdgeStyle;rounded=0;orthogonalLoop=1;jettySize=auto;html=1;entryX=0.987;entryY=0.506;entryDx=0;entryDy=0;entryPerimeter=0;" parent="1" source="8b_EzW5nCd0KgZcIu2Tj-17" target="8b_EzW5nCd0KgZcIu2Tj-18" edge="1">
          <mxGeometry relative="1" as="geometry" />
        </mxCell>
        <mxCell id="8b_EzW5nCd0KgZcIu2Tj-20" value="Login/Register Screen" style="shape=umlBoundary;whiteSpace=wrap;html=1;" parent="1" vertex="1">
          <mxGeometry x="340" y="830" width="100" height="80" as="geometry" />
        </mxCell>
        <mxCell id="8b_EzW5nCd0KgZcIu2Tj-21" style="edgeStyle=orthogonalEdgeStyle;rounded=0;orthogonalLoop=1;jettySize=auto;html=1;entryX=-0.002;entryY=0.503;entryDx=0;entryDy=0;entryPerimeter=0;" parent="1" source="8b_EzW5nCd0KgZcIu2Tj-1" target="8b_EzW5nCd0KgZcIu2Tj-20" edge="1">
          <mxGeometry relative="1" as="geometry" />
        </mxCell>
        <mxCell id="8b_EzW5nCd0KgZcIu2Tj-22" style="edgeStyle=orthogonalEdgeStyle;rounded=0;orthogonalLoop=1;jettySize=auto;html=1;entryX=0;entryY=0.495;entryDx=0;entryDy=0;entryPerimeter=0;" parent="1" source="8b_EzW5nCd0KgZcIu2Tj-20" target="8b_EzW5nCd0KgZcIu2Tj-2" edge="1">
          <mxGeometry relative="1" as="geometry" />
        </mxCell>
        <mxCell id="8b_EzW5nCd0KgZcIu2Tj-24" style="edgeStyle=orthogonalEdgeStyle;rounded=0;orthogonalLoop=1;jettySize=auto;html=1;entryX=0.61;entryY=1.04;entryDx=0;entryDy=0;entryPerimeter=0;dashed=1;" parent="1" source="8b_EzW5nCd0KgZcIu2Tj-18" target="8b_EzW5nCd0KgZcIu2Tj-20" edge="1">
          <mxGeometry relative="1" as="geometry" />
        </mxCell>
        <mxCell id="8b_EzW5nCd0KgZcIu2Tj-25" value="Redirect" style="text;html=1;align=center;verticalAlign=middle;whiteSpace=wrap;rounded=0;" parent="1" vertex="1">
          <mxGeometry x="520" y="1118" width="60" height="30" as="geometry" />
        </mxCell>
        <mxCell id="8b_EzW5nCd0KgZcIu2Tj-26" value="Username already exists ?" style="ellipse;shape=umlControl;whiteSpace=wrap;html=1;" parent="1" vertex="1">
          <mxGeometry x="1220" y="830" width="70" height="80" as="geometry" />
        </mxCell>
        <mxCell id="8b_EzW5nCd0KgZcIu2Tj-27" style="edgeStyle=orthogonalEdgeStyle;rounded=0;orthogonalLoop=1;jettySize=auto;html=1;entryX=0.005;entryY=0.502;entryDx=0;entryDy=0;entryPerimeter=0;" parent="1" source="8b_EzW5nCd0KgZcIu2Tj-5" target="8b_EzW5nCd0KgZcIu2Tj-26" edge="1">
          <mxGeometry relative="1" as="geometry" />
        </mxCell>
        <mxCell id="8b_EzW5nCd0KgZcIu2Tj-28" style="edgeStyle=orthogonalEdgeStyle;rounded=0;orthogonalLoop=1;jettySize=auto;html=1;entryX=-0.023;entryY=0.509;entryDx=0;entryDy=0;entryPerimeter=0;" parent="1" source="8b_EzW5nCd0KgZcIu2Tj-26" target="8b_EzW5nCd0KgZcIu2Tj-6" edge="1">
          <mxGeometry relative="1" as="geometry" />
        </mxCell>
        <mxCell id="8b_EzW5nCd0KgZcIu2Tj-34" style="edgeStyle=orthogonalEdgeStyle;rounded=0;orthogonalLoop=1;jettySize=auto;html=1;" parent="1" source="8b_EzW5nCd0KgZcIu2Tj-29" target="8b_EzW5nCd0KgZcIu2Tj-33" edge="1">
          <mxGeometry relative="1" as="geometry" />
        </mxCell>
        <mxCell id="8b_EzW5nCd0KgZcIu2Tj-29" value="Show" style="ellipse;shape=umlControl;whiteSpace=wrap;html=1;" parent="1" vertex="1">
          <mxGeometry x="1220" y="1110" width="70" height="80" as="geometry" />
        </mxCell>
        <mxCell id="8b_EzW5nCd0KgZcIu2Tj-30" style="edgeStyle=orthogonalEdgeStyle;rounded=0;orthogonalLoop=1;jettySize=auto;html=1;entryX=0.509;entryY=0.209;entryDx=0;entryDy=0;entryPerimeter=0;" parent="1" source="8b_EzW5nCd0KgZcIu2Tj-26" target="8b_EzW5nCd0KgZcIu2Tj-29" edge="1">
          <mxGeometry relative="1" as="geometry" />
        </mxCell>
        <mxCell id="8b_EzW5nCd0KgZcIu2Tj-31" value="No" style="text;html=1;align=center;verticalAlign=middle;whiteSpace=wrap;rounded=0;" parent="1" vertex="1">
          <mxGeometry x="1330" y="840" width="60" height="30" as="geometry" />
        </mxCell>
        <mxCell id="8b_EzW5nCd0KgZcIu2Tj-32" value="Yes" style="text;html=1;align=center;verticalAlign=middle;whiteSpace=wrap;rounded=0;" parent="1" vertex="1">
          <mxGeometry x="1190" y="950" width="60" height="30" as="geometry" />
        </mxCell>
        <mxCell id="8b_EzW5nCd0KgZcIu2Tj-33" value="Error Message; Username already exists" style="ellipse;shape=umlControl;whiteSpace=wrap;html=1;fillColor=#e51400;fontColor=#ffffff;strokeColor=#B20000;" parent="1" vertex="1">
          <mxGeometry x="1040" y="1110" width="70" height="80" as="geometry" />
        </mxCell>
        <mxCell id="8b_EzW5nCd0KgZcIu2Tj-36" style="edgeStyle=orthogonalEdgeStyle;rounded=0;orthogonalLoop=1;jettySize=auto;html=1;entryX=0.503;entryY=0.971;entryDx=0;entryDy=0;entryPerimeter=0;dashed=1;exitX=0.503;exitY=0.106;exitDx=0;exitDy=0;exitPerimeter=0;" parent="1" source="8b_EzW5nCd0KgZcIu2Tj-33" target="8b_EzW5nCd0KgZcIu2Tj-5" edge="1">
          <mxGeometry relative="1" as="geometry" />
        </mxCell>
        <mxCell id="8b_EzW5nCd0KgZcIu2Tj-37" value="Redirect" style="text;html=1;align=center;verticalAlign=middle;whiteSpace=wrap;rounded=0;" parent="1" vertex="1">
          <mxGeometry x="1010" y="1000" width="60" height="30" as="geometry" />
        </mxCell>
      </root>
    </mxGraphModel>
  </diagram>
  <diagram id="MHXvcwcMv2Jgkb7TKqYF" name="rate food  v0.3">
    <mxGraphModel dx="1562" dy="909" grid="1" gridSize="10" guides="1" tooltips="1" connect="1" arrows="1" fold="1" page="1" pageScale="1" pageWidth="3300" pageHeight="4681" math="0" shadow="0">
      <root>
        <mxCell id="0" />
        <mxCell id="1" parent="0" />
        <mxCell id="ArqrsHK7bcx98l6IFs3D-1" style="edgeStyle=orthogonalEdgeStyle;rounded=0;orthogonalLoop=1;jettySize=auto;html=1;" parent="1" source="ArqrsHK7bcx98l6IFs3D-2" edge="1">
          <mxGeometry relative="1" as="geometry">
            <mxPoint x="610" y="1349.9499999999998" as="targetPoint" />
          </mxGeometry>
        </mxCell>
        <mxCell id="ArqrsHK7bcx98l6IFs3D-2" value="Rest. Customer" style="shape=umlActor;verticalLabelPosition=bottom;verticalAlign=top;html=1;movable=1;resizable=1;rotatable=1;deletable=1;editable=1;locked=0;connectable=1;labelPosition=center;align=center;textShadow=0;" parent="1" vertex="1">
          <mxGeometry x="330" y="1309.95" width="40" height="80" as="geometry" />
        </mxCell>
        <mxCell id="ArqrsHK7bcx98l6IFs3D-3" value="Rate Food Screen" style="shape=umlBoundary;whiteSpace=wrap;html=1;rotation=0;" parent="1" vertex="1">
          <mxGeometry x="620" y="1309.95" width="100" height="80" as="geometry" />
        </mxCell>
        <mxCell id="ArqrsHK7bcx98l6IFs3D-4" value="Dish Selector" style="ellipse;shape=umlControl;whiteSpace=wrap;html=1;" parent="1" vertex="1">
          <mxGeometry x="830" y="1309.95" width="70" height="80" as="geometry" />
        </mxCell>
        <mxCell id="ArqrsHK7bcx98l6IFs3D-5" style="edgeStyle=orthogonalEdgeStyle;rounded=0;orthogonalLoop=1;jettySize=auto;html=1;entryX=-0.04;entryY=0.501;entryDx=0;entryDy=0;entryPerimeter=0;" parent="1" source="ArqrsHK7bcx98l6IFs3D-3" target="ArqrsHK7bcx98l6IFs3D-4" edge="1">
          <mxGeometry relative="1" as="geometry" />
        </mxCell>
        <mxCell id="ArqrsHK7bcx98l6IFs3D-6" value="List of Dishes" style="ellipse;shape=umlEntity;whiteSpace=wrap;html=1;" parent="1" vertex="1">
          <mxGeometry x="825" y="1189.95" width="80" height="80" as="geometry" />
        </mxCell>
        <mxCell id="ArqrsHK7bcx98l6IFs3D-7" value="" style="endArrow=none;html=1;rounded=0;strokeWidth=2;" parent="1" edge="1">
          <mxGeometry width="50" height="50" relative="1" as="geometry">
            <mxPoint x="865" y="1319.95" as="sourcePoint" />
            <mxPoint x="864.71" y="1269.95" as="targetPoint" />
          </mxGeometry>
        </mxCell>
        <mxCell id="ArqrsHK7bcx98l6IFs3D-8" value="Rating Selector" style="ellipse;shape=umlControl;whiteSpace=wrap;html=1;" parent="1" vertex="1">
          <mxGeometry x="1030" y="1309.95" width="70" height="80" as="geometry" />
        </mxCell>
        <mxCell id="ArqrsHK7bcx98l6IFs3D-9" style="edgeStyle=orthogonalEdgeStyle;rounded=0;orthogonalLoop=1;jettySize=auto;html=1;entryX=0;entryY=0.5;entryDx=0;entryDy=0;entryPerimeter=0;" parent="1" source="ArqrsHK7bcx98l6IFs3D-4" target="ArqrsHK7bcx98l6IFs3D-8" edge="1">
          <mxGeometry relative="1" as="geometry" />
        </mxCell>
        <mxCell id="ArqrsHK7bcx98l6IFs3D-10" value="List of Ratings (1/2/3 Stars)" style="ellipse;shape=umlEntity;whiteSpace=wrap;html=1;" parent="1" vertex="1">
          <mxGeometry x="1025" y="1189.95" width="80" height="80" as="geometry" />
        </mxCell>
        <mxCell id="ArqrsHK7bcx98l6IFs3D-11" value="" style="endArrow=none;html=1;rounded=0;strokeWidth=2;" parent="1" edge="1">
          <mxGeometry width="50" height="50" relative="1" as="geometry">
            <mxPoint x="1064.79" y="1319.95" as="sourcePoint" />
            <mxPoint x="1064.5" y="1269.95" as="targetPoint" />
          </mxGeometry>
        </mxCell>
        <mxCell id="ArqrsHK7bcx98l6IFs3D-12" value="Has the user chosen everything correctly?" style="ellipse;shape=umlControl;whiteSpace=wrap;html=1;fillColor=#e51400;fontColor=#ffffff;strokeColor=#B20000;" parent="1" vertex="1">
          <mxGeometry x="1035" y="1479.95" width="70" height="80" as="geometry" />
        </mxCell>
        <mxCell id="ArqrsHK7bcx98l6IFs3D-13" style="edgeStyle=orthogonalEdgeStyle;rounded=0;orthogonalLoop=1;jettySize=auto;html=1;entryX=0.432;entryY=0.077;entryDx=0;entryDy=0;entryPerimeter=0;" parent="1" source="ArqrsHK7bcx98l6IFs3D-8" target="ArqrsHK7bcx98l6IFs3D-12" edge="1">
          <mxGeometry relative="1" as="geometry" />
        </mxCell>
        <mxCell id="ArqrsHK7bcx98l6IFs3D-14" value="Yes" style="text;html=1;align=center;verticalAlign=middle;resizable=0;points=[];autosize=1;strokeColor=none;fillColor=none;" parent="1" vertex="1">
          <mxGeometry x="1080" y="1570.05" width="40" height="30" as="geometry" />
        </mxCell>
        <mxCell id="ArqrsHK7bcx98l6IFs3D-15" value="&lt;font style=&quot;font-size: 11px;&quot;&gt;&quot;Rate Food&quot; Selection&lt;/font&gt;" style="text;html=1;align=center;verticalAlign=middle;resizable=0;points=[];autosize=1;strokeColor=none;fillColor=none;" parent="1" vertex="1">
          <mxGeometry x="470" y="1350" width="130" height="30" as="geometry" />
        </mxCell>
        <mxCell id="ArqrsHK7bcx98l6IFs3D-16" value="Loop back to let user rate another dish" style="text;align=center;verticalAlign=middle;resizable=0;points=[];autosize=1;strokeColor=none;fillColor=none;textShadow=0;labelBorderColor=none;labelBackgroundColor=none;imageWidth=20;imageHeight=24;arcSize=12;rotation=-90;" parent="1" vertex="1">
          <mxGeometry x="1230" y="1410" width="230" height="30" as="geometry" />
        </mxCell>
        <mxCell id="ArqrsHK7bcx98l6IFs3D-17" value="No" style="text;html=1;align=center;verticalAlign=middle;resizable=0;points=[];autosize=1;strokeColor=none;fillColor=none;" parent="1" vertex="1">
          <mxGeometry x="990" y="1490" width="40" height="30" as="geometry" />
        </mxCell>
        <mxCell id="ArqrsHK7bcx98l6IFs3D-18" value="Rating Controller" style="ellipse;shape=umlControl;whiteSpace=wrap;html=1;" parent="1" vertex="1">
          <mxGeometry x="1035" y="1660" width="70" height="80" as="geometry" />
        </mxCell>
        <mxCell id="ArqrsHK7bcx98l6IFs3D-19" style="edgeStyle=orthogonalEdgeStyle;rounded=0;orthogonalLoop=1;jettySize=auto;html=1;entryX=0.495;entryY=0.037;entryDx=0;entryDy=0;entryPerimeter=0;" parent="1" source="ArqrsHK7bcx98l6IFs3D-12" target="ArqrsHK7bcx98l6IFs3D-18" edge="1">
          <mxGeometry relative="1" as="geometry" />
        </mxCell>
        <mxCell id="ArqrsHK7bcx98l6IFs3D-20" value="&lt;span style=&quot;font-size: 10px;&quot;&gt;&lt;font style=&quot;color: rgb(255, 255, 255);&quot;&gt;Error Msg &quot;Can&#39;t rate dish. Please review your selections&quot;&lt;/font&gt;&lt;/span&gt;" style="shape=umlBoundary;whiteSpace=wrap;html=1;fillColor=#e51400;fontColor=#ffffff;strokeColor=#B20000;" parent="1" vertex="1">
          <mxGeometry x="610" y="1479.95" width="110" height="90.1" as="geometry" />
        </mxCell>
        <mxCell id="ArqrsHK7bcx98l6IFs3D-21" value="No" style="text;html=1;align=center;verticalAlign=middle;resizable=0;points=[];autosize=1;strokeColor=none;fillColor=none;" parent="1" vertex="1">
          <mxGeometry x="1120" y="1830" width="40" height="30" as="geometry" />
        </mxCell>
        <mxCell id="ArqrsHK7bcx98l6IFs3D-22" value="Yes" style="text;html=1;align=center;verticalAlign=middle;resizable=0;points=[];autosize=1;strokeColor=none;fillColor=none;" parent="1" vertex="1">
          <mxGeometry x="995" y="1840" width="40" height="30" as="geometry" />
        </mxCell>
        <mxCell id="ArqrsHK7bcx98l6IFs3D-23" value="Show" style="ellipse;shape=umlControl;whiteSpace=wrap;html=1;fillColor=#e51400;fontColor=#ffffff;strokeColor=#B20000;" parent="1" vertex="1">
          <mxGeometry x="835" y="1479.95" width="70" height="80" as="geometry" />
        </mxCell>
        <mxCell id="ArqrsHK7bcx98l6IFs3D-24" style="edgeStyle=orthogonalEdgeStyle;rounded=0;orthogonalLoop=1;jettySize=auto;html=1;entryX=0.969;entryY=0.506;entryDx=0;entryDy=0;entryPerimeter=0;fillColor=#e51400;strokeColor=#B20000;" parent="1" source="ArqrsHK7bcx98l6IFs3D-12" target="ArqrsHK7bcx98l6IFs3D-23" edge="1">
          <mxGeometry relative="1" as="geometry" />
        </mxCell>
        <mxCell id="ArqrsHK7bcx98l6IFs3D-25" style="edgeStyle=orthogonalEdgeStyle;rounded=0;orthogonalLoop=1;jettySize=auto;html=1;fillColor=#e51400;strokeColor=#B20000;" parent="1" source="ArqrsHK7bcx98l6IFs3D-23" edge="1">
          <mxGeometry relative="1" as="geometry">
            <mxPoint x="720" y="1520" as="targetPoint" />
          </mxGeometry>
        </mxCell>
        <mxCell id="ArqrsHK7bcx98l6IFs3D-26" value="Show&lt;div&gt;&quot;Are you done with rating ?&lt;/div&gt;" style="ellipse;shape=umlControl;whiteSpace=wrap;html=1;fillColor=#e51400;fontColor=#ffffff;strokeColor=#B20000;" parent="1" vertex="1">
          <mxGeometry x="1035" y="1830" width="70" height="80" as="geometry" />
        </mxCell>
        <mxCell id="ArqrsHK7bcx98l6IFs3D-27" style="edgeStyle=orthogonalEdgeStyle;rounded=0;orthogonalLoop=1;jettySize=auto;html=1;entryX=0.51;entryY=0.02;entryDx=0;entryDy=0;entryPerimeter=0;" parent="1" source="ArqrsHK7bcx98l6IFs3D-18" target="ArqrsHK7bcx98l6IFs3D-26" edge="1">
          <mxGeometry relative="1" as="geometry" />
        </mxCell>
        <mxCell id="ArqrsHK7bcx98l6IFs3D-28" style="edgeStyle=orthogonalEdgeStyle;rounded=0;orthogonalLoop=1;jettySize=auto;html=1;entryX=0.575;entryY=0.006;entryDx=0;entryDy=0;entryPerimeter=0;fillColor=#e51400;strokeColor=#B20000;" parent="1" source="ArqrsHK7bcx98l6IFs3D-26" target="ArqrsHK7bcx98l6IFs3D-3" edge="1">
          <mxGeometry relative="1" as="geometry">
            <Array as="points">
              <mxPoint x="1370" y="1870" />
              <mxPoint x="1370" y="1100" />
              <mxPoint x="678" y="1100" />
            </Array>
          </mxGeometry>
        </mxCell>
        <mxCell id="ArqrsHK7bcx98l6IFs3D-29" value="Await correct input" style="ellipse;shape=umlControl;whiteSpace=wrap;html=1;fillColor=#e51400;fontColor=#ffffff;strokeColor=#B20000;" parent="1" vertex="1">
          <mxGeometry x="640" y="1660" width="70" height="80" as="geometry" />
        </mxCell>
        <mxCell id="ArqrsHK7bcx98l6IFs3D-30" style="edgeStyle=orthogonalEdgeStyle;rounded=0;orthogonalLoop=1;jettySize=auto;html=1;entryX=0.344;entryY=0.12;entryDx=0;entryDy=0;entryPerimeter=0;fillColor=#e51400;strokeColor=#B20000;" parent="1" source="ArqrsHK7bcx98l6IFs3D-20" target="ArqrsHK7bcx98l6IFs3D-29" edge="1">
          <mxGeometry relative="1" as="geometry" />
        </mxCell>
        <mxCell id="ArqrsHK7bcx98l6IFs3D-31" value="HomeScreen" style="shape=umlBoundary;whiteSpace=wrap;html=1;rotation=0;" parent="1" vertex="1">
          <mxGeometry x="620" y="1830" width="100" height="80" as="geometry" />
        </mxCell>
        <mxCell id="ArqrsHK7bcx98l6IFs3D-32" style="edgeStyle=orthogonalEdgeStyle;rounded=0;orthogonalLoop=1;jettySize=auto;html=1;entryX=1.004;entryY=0.5;entryDx=0;entryDy=0;entryPerimeter=0;dashed=1;" parent="1" source="ArqrsHK7bcx98l6IFs3D-26" target="ArqrsHK7bcx98l6IFs3D-31" edge="1">
          <mxGeometry relative="1" as="geometry" />
        </mxCell>
        <mxCell id="ArqrsHK7bcx98l6IFs3D-33" value="Redirect" style="edgeLabel;html=1;align=center;verticalAlign=middle;resizable=0;points=[];" parent="ArqrsHK7bcx98l6IFs3D-32" vertex="1" connectable="0">
          <mxGeometry x="0.1596" y="1" relative="1" as="geometry">
            <mxPoint as="offset" />
          </mxGeometry>
        </mxCell>
        <mxCell id="ArqrsHK7bcx98l6IFs3D-34" style="edgeStyle=orthogonalEdgeStyle;rounded=0;orthogonalLoop=1;jettySize=auto;html=1;entryX=0.514;entryY=1.001;entryDx=0;entryDy=0;entryPerimeter=0;fillColor=#e51400;strokeColor=#B20000;" parent="1" source="ArqrsHK7bcx98l6IFs3D-29" target="ArqrsHK7bcx98l6IFs3D-4" edge="1">
          <mxGeometry relative="1" as="geometry">
            <Array as="points">
              <mxPoint x="530" y="1700" />
              <mxPoint x="530" y="1440" />
              <mxPoint x="866" y="1440" />
            </Array>
          </mxGeometry>
        </mxCell>
        <mxCell id="ArqrsHK7bcx98l6IFs3D-35" style="edgeStyle=orthogonalEdgeStyle;rounded=0;orthogonalLoop=1;jettySize=auto;html=1;fillColor=#e51400;strokeColor=#B20000;" parent="1" source="ArqrsHK7bcx98l6IFs3D-29" target="ArqrsHK7bcx98l6IFs3D-8" edge="1">
          <mxGeometry relative="1" as="geometry">
            <Array as="points">
              <mxPoint x="530" y="1700" />
              <mxPoint x="530" y="1440" />
              <mxPoint x="1039" y="1440" />
            </Array>
          </mxGeometry>
        </mxCell>
        <mxCell id="ArqrsHK7bcx98l6IFs3D-36" value="&lt;span style=&quot;color: rgb(0, 0, 0); font-family: Helvetica; font-size: 12px; font-style: normal; font-variant-ligatures: normal; font-variant-caps: normal; font-weight: 400; letter-spacing: normal; orphans: 2; text-align: center; text-indent: 0px; text-transform: none; widows: 2; word-spacing: 0px; -webkit-text-stroke-width: 0px; white-space: nowrap; background-color: rgb(251, 251, 251); text-decoration-thickness: initial; text-decoration-style: initial; text-decoration-color: initial; display: inline !important; float: none;&quot;&gt;Loop back to let user change things&lt;/span&gt;" style="text;whiteSpace=wrap;html=1;rotation=0;" parent="1" vertex="1">
          <mxGeometry x="450" y="1709.95" width="190" height="30.05" as="geometry" />
        </mxCell>
      </root>
    </mxGraphModel>
  </diagram>
  <diagram id="ItQFjKTXEd1ZV2xI3wBt" name="edit profile v0.2">
    <mxGraphModel dx="1838" dy="1069" grid="1" gridSize="10" guides="1" tooltips="1" connect="1" arrows="1" fold="1" page="1" pageScale="1" pageWidth="3300" pageHeight="4681" math="0" shadow="0">
      <root>
        <mxCell id="0" />
        <mxCell id="1" parent="0" />
        <mxCell id="n7ZQVAmW6PqnS9mVDtqT-1" value="User" style="shape=umlActor;verticalLabelPosition=bottom;verticalAlign=top;html=1;outlineConnect=0;" parent="1" vertex="1">
          <mxGeometry x="240" y="820" width="60" height="100" as="geometry" />
        </mxCell>
        <mxCell id="n7ZQVAmW6PqnS9mVDtqT-2" value="EditProfile Screen" style="shape=umlBoundary;whiteSpace=wrap;html=1;" parent="1" vertex="1">
          <mxGeometry x="480" y="830" width="100" height="80" as="geometry" />
        </mxCell>
        <mxCell id="n7ZQVAmW6PqnS9mVDtqT-3" value="Mobile Number Controller" style="ellipse;shape=umlControl;whiteSpace=wrap;html=1;" parent="1" vertex="1">
          <mxGeometry x="690" y="830" width="70" height="80" as="geometry" />
        </mxCell>
        <mxCell id="n7ZQVAmW6PqnS9mVDtqT-5" value="Avatar Controller" style="ellipse;shape=umlControl;whiteSpace=wrap;html=1;" parent="1" vertex="1">
          <mxGeometry x="1170" y="1120" width="70" height="80" as="geometry" />
        </mxCell>
        <mxCell id="n7ZQVAmW6PqnS9mVDtqT-6" style="edgeStyle=orthogonalEdgeStyle;rounded=0;orthogonalLoop=1;jettySize=auto;html=1;" parent="1" source="n7ZQVAmW6PqnS9mVDtqT-2" edge="1">
          <mxGeometry relative="1" as="geometry">
            <mxPoint x="690" y="870" as="targetPoint" />
          </mxGeometry>
        </mxCell>
        <mxCell id="7RGMDKemquN4AuBJu6c--1" style="edgeStyle=orthogonalEdgeStyle;rounded=0;orthogonalLoop=1;jettySize=auto;html=1;fillColor=#e51400;strokeColor=#B20000;" parent="1" edge="1">
          <mxGeometry relative="1" as="geometry">
            <Array as="points">
              <mxPoint x="904.71" y="1050" />
              <mxPoint x="904.71" y="1050" />
            </Array>
            <mxPoint x="904.71" y="910" as="sourcePoint" />
            <mxPoint x="904.7385714285715" y="1100.4055679369478" as="targetPoint" />
          </mxGeometry>
        </mxCell>
        <mxCell id="nwVHJ_DDfkLl1196NfXr-1" value="No" style="edgeLabel;html=1;align=center;verticalAlign=middle;resizable=0;points=[];" vertex="1" connectable="0" parent="7RGMDKemquN4AuBJu6c--1">
          <mxGeometry x="-0.3151" y="-1" relative="1" as="geometry">
            <mxPoint as="offset" />
          </mxGeometry>
        </mxCell>
        <mxCell id="n7ZQVAmW6PqnS9mVDtqT-8" value="Is the number in the correct format ?" style="ellipse;shape=umlControl;whiteSpace=wrap;html=1;fillColor=#e51400;fontColor=#ffffff;strokeColor=#B20000;textShadow=1;fontSize=11;" parent="1" vertex="1">
          <mxGeometry x="860" y="830" width="80" height="80" as="geometry" />
        </mxCell>
        <mxCell id="n7ZQVAmW6PqnS9mVDtqT-9" style="edgeStyle=orthogonalEdgeStyle;rounded=0;orthogonalLoop=1;jettySize=auto;html=1;" parent="1" source="n7ZQVAmW6PqnS9mVDtqT-3" edge="1">
          <mxGeometry relative="1" as="geometry">
            <mxPoint x="860" y="870" as="targetPoint" />
          </mxGeometry>
        </mxCell>
        <mxCell id="n7ZQVAmW6PqnS9mVDtqT-13" value="Show" style="ellipse;shape=umlControl;whiteSpace=wrap;html=1;fillColor=#e51400;fontColor=#ffffff;strokeColor=#B20000;textShadow=1;" parent="1" vertex="1">
          <mxGeometry x="870" y="1100" width="70" height="80" as="geometry" />
        </mxCell>
        <mxCell id="n7ZQVAmW6PqnS9mVDtqT-14" value="Error Message&lt;div&gt;&quot;Phone Number isn&#39;t in correct format. Please try again&quot;&lt;/div&gt;" style="ellipse;shape=umlControl;whiteSpace=wrap;html=1;fillColor=#e51400;fontColor=#FFFFFF;strokeColor=#B20000;fontSize=10;labelBackgroundColor=none;labelBorderColor=none;textShadow=1;" parent="1" vertex="1">
          <mxGeometry x="670" y="1070" width="100" height="120" as="geometry" />
        </mxCell>
        <mxCell id="n7ZQVAmW6PqnS9mVDtqT-15" style="edgeStyle=orthogonalEdgeStyle;rounded=0;orthogonalLoop=1;jettySize=auto;html=1;entryX=0.987;entryY=0.506;entryDx=0;entryDy=0;entryPerimeter=0;fillColor=#e51400;strokeColor=#B20000;endArrow=none;startFill=0;" parent="1" source="n7ZQVAmW6PqnS9mVDtqT-13" target="n7ZQVAmW6PqnS9mVDtqT-14" edge="1">
          <mxGeometry relative="1" as="geometry">
            <Array as="points">
              <mxPoint x="769" y="1150" />
            </Array>
          </mxGeometry>
        </mxCell>
        <mxCell id="n7ZQVAmW6PqnS9mVDtqT-35" style="edgeStyle=orthogonalEdgeStyle;rounded=0;orthogonalLoop=1;jettySize=auto;html=1;entryX=-0.02;entryY=0.505;entryDx=0;entryDy=0;entryPerimeter=0;" parent="1" source="n7ZQVAmW6PqnS9mVDtqT-1" target="n7ZQVAmW6PqnS9mVDtqT-2" edge="1">
          <mxGeometry relative="1" as="geometry" />
        </mxCell>
        <mxCell id="QZ_a09RzSfFhmo-o4vxT-1" value="&quot;Edit Profile&quot; Selection" style="text;html=1;align=center;verticalAlign=middle;resizable=0;points=[];autosize=1;strokeColor=none;fillColor=none;" parent="1" vertex="1">
          <mxGeometry x="320" y="840" width="140" height="30" as="geometry" />
        </mxCell>
        <mxCell id="MZlkSf76wRMqi1w8Q-Zd-5" value="HomeScreen" style="shape=umlBoundary;whiteSpace=wrap;html=1;" parent="1" vertex="1">
          <mxGeometry x="1620" y="610" width="100" height="80" as="geometry" />
        </mxCell>
        <mxCell id="gVJ7Yrue3Qoo17X78Tbs-3" style="edgeStyle=orthogonalEdgeStyle;rounded=0;orthogonalLoop=1;jettySize=auto;html=1;fillColor=#e51400;strokeColor=#B20000;exitX=0.531;exitY=0.085;exitDx=0;exitDy=0;exitPerimeter=0;" edge="1" parent="1" source="gVJ7Yrue3Qoo17X78Tbs-1" target="n7ZQVAmW6PqnS9mVDtqT-3">
          <mxGeometry relative="1" as="geometry">
            <Array as="points">
              <mxPoint x="515" y="1097" />
              <mxPoint x="515" y="960" />
              <mxPoint x="725" y="960" />
            </Array>
          </mxGeometry>
        </mxCell>
        <mxCell id="gVJ7Yrue3Qoo17X78Tbs-1" value="&lt;font style=&quot;font-size: 11px;&quot;&gt;Await correct user input&lt;/font&gt;" style="ellipse;shape=umlControl;whiteSpace=wrap;html=1;fillColor=#e51400;fontColor=#ffffff;strokeColor=#B20000;textShadow=1;" vertex="1" parent="1">
          <mxGeometry x="480" y="1090" width="70" height="80" as="geometry" />
        </mxCell>
        <mxCell id="gVJ7Yrue3Qoo17X78Tbs-2" style="edgeStyle=orthogonalEdgeStyle;rounded=0;orthogonalLoop=1;jettySize=auto;html=1;entryX=1.046;entryY=0.495;entryDx=0;entryDy=0;entryPerimeter=0;fillColor=#e51400;strokeColor=#B20000;" edge="1" parent="1" source="n7ZQVAmW6PqnS9mVDtqT-14" target="gVJ7Yrue3Qoo17X78Tbs-1">
          <mxGeometry relative="1" as="geometry" />
        </mxCell>
        <mxCell id="gVJ7Yrue3Qoo17X78Tbs-4" value="Username Controller" style="ellipse;shape=umlControl;whiteSpace=wrap;html=1;" vertex="1" parent="1">
          <mxGeometry x="500" y="410" width="70" height="80" as="geometry" />
        </mxCell>
        <mxCell id="gVJ7Yrue3Qoo17X78Tbs-5" style="edgeStyle=orthogonalEdgeStyle;rounded=0;orthogonalLoop=1;jettySize=auto;html=1;entryX=0.417;entryY=1.04;entryDx=0;entryDy=0;entryPerimeter=0;" edge="1" parent="1" source="n7ZQVAmW6PqnS9mVDtqT-2" target="gVJ7Yrue3Qoo17X78Tbs-4">
          <mxGeometry relative="1" as="geometry" />
        </mxCell>
        <mxCell id="gVJ7Yrue3Qoo17X78Tbs-6" value="Username already exists ?" style="ellipse;shape=umlControl;whiteSpace=wrap;html=1;fillColor=#e51400;fontColor=#ffffff;strokeColor=#B20000;textShadow=1;" vertex="1" parent="1">
          <mxGeometry x="670" y="410" width="70" height="80" as="geometry" />
        </mxCell>
        <mxCell id="gVJ7Yrue3Qoo17X78Tbs-7" style="edgeStyle=orthogonalEdgeStyle;rounded=0;orthogonalLoop=1;jettySize=auto;html=1;entryX=0.034;entryY=0.49;entryDx=0;entryDy=0;entryPerimeter=0;" edge="1" parent="1" source="gVJ7Yrue3Qoo17X78Tbs-4" target="gVJ7Yrue3Qoo17X78Tbs-6">
          <mxGeometry relative="1" as="geometry" />
        </mxCell>
        <mxCell id="gVJ7Yrue3Qoo17X78Tbs-8" value="Show" style="ellipse;shape=umlControl;whiteSpace=wrap;html=1;fillColor=#e51400;fontColor=#ffffff;strokeColor=#B20000;textShadow=1;" vertex="1" parent="1">
          <mxGeometry x="820" y="410" width="70" height="80" as="geometry" />
        </mxCell>
        <mxCell id="gVJ7Yrue3Qoo17X78Tbs-9" value="Error Message; &quot;Username already exists.Try again&quot;" style="ellipse;shape=umlControl;whiteSpace=wrap;html=1;fillColor=#e51400;fontColor=#ffffff;strokeColor=#B20000;fontSize=8;textShadow=1;" vertex="1" parent="1">
          <mxGeometry x="980" y="410" width="70" height="80" as="geometry" />
        </mxCell>
        <mxCell id="gVJ7Yrue3Qoo17X78Tbs-10" style="edgeStyle=orthogonalEdgeStyle;rounded=0;orthogonalLoop=1;jettySize=auto;html=1;entryX=0.006;entryY=0.51;entryDx=0;entryDy=0;entryPerimeter=0;fillColor=#e51400;strokeColor=#B20000;" edge="1" parent="1" source="gVJ7Yrue3Qoo17X78Tbs-6" target="gVJ7Yrue3Qoo17X78Tbs-8">
          <mxGeometry relative="1" as="geometry" />
        </mxCell>
        <mxCell id="nwVHJ_DDfkLl1196NfXr-8" value="&lt;span style=&quot;font-size: 12px; background-color: rgb(251, 251, 251);&quot;&gt;Yes&lt;/span&gt;" style="edgeLabel;html=1;align=center;verticalAlign=middle;resizable=0;points=[];" vertex="1" connectable="0" parent="gVJ7Yrue3Qoo17X78Tbs-10">
          <mxGeometry x="-0.1832" y="2" relative="1" as="geometry">
            <mxPoint as="offset" />
          </mxGeometry>
        </mxCell>
        <mxCell id="gVJ7Yrue3Qoo17X78Tbs-11" style="edgeStyle=orthogonalEdgeStyle;rounded=0;orthogonalLoop=1;jettySize=auto;html=1;entryX=-0.029;entryY=0.51;entryDx=0;entryDy=0;entryPerimeter=0;fillColor=#e51400;strokeColor=#B20000;endArrow=none;startFill=0;" edge="1" parent="1" source="gVJ7Yrue3Qoo17X78Tbs-8" target="gVJ7Yrue3Qoo17X78Tbs-9">
          <mxGeometry relative="1" as="geometry" />
        </mxCell>
        <mxCell id="gVJ7Yrue3Qoo17X78Tbs-12" style="edgeStyle=orthogonalEdgeStyle;rounded=0;orthogonalLoop=1;jettySize=auto;html=1;entryX=0.463;entryY=0.05;entryDx=0;entryDy=0;entryPerimeter=0;fillColor=#e51400;strokeColor=#B20000;" edge="1" parent="1" source="gVJ7Yrue3Qoo17X78Tbs-9" target="gVJ7Yrue3Qoo17X78Tbs-4">
          <mxGeometry relative="1" as="geometry">
            <Array as="points">
              <mxPoint x="1120" y="450" />
              <mxPoint x="1120" y="300" />
              <mxPoint x="532" y="300" />
            </Array>
          </mxGeometry>
        </mxCell>
        <mxCell id="gVJ7Yrue3Qoo17X78Tbs-13" value="Prompt user to try another username" style="text;html=1;align=center;verticalAlign=middle;whiteSpace=wrap;rounded=0;" vertex="1" parent="1">
          <mxGeometry x="740" y="250" width="150" height="50" as="geometry" />
        </mxCell>
        <mxCell id="gVJ7Yrue3Qoo17X78Tbs-16" value="SaveChanges Controller" style="ellipse;shape=umlControl;whiteSpace=wrap;html=1;" vertex="1" parent="1">
          <mxGeometry x="990" y="610" width="70" height="80" as="geometry" />
        </mxCell>
        <mxCell id="gVJ7Yrue3Qoo17X78Tbs-17" value="Show&amp;nbsp;" style="ellipse;shape=umlControl;whiteSpace=wrap;html=1;" vertex="1" parent="1">
          <mxGeometry x="1170" y="610" width="70" height="80" as="geometry" />
        </mxCell>
        <mxCell id="gVJ7Yrue3Qoo17X78Tbs-18" value="&lt;span style=&quot;color: rgb(0, 0, 0);&quot;&gt;Confirmation Msg&lt;/span&gt;&lt;div&gt;&lt;span style=&quot;color: rgb(0, 0, 0);&quot;&gt;&quot;Changes were successful&quot;&lt;/span&gt;&lt;/div&gt;" style="ellipse;shape=umlControl;whiteSpace=wrap;html=1;" vertex="1" parent="1">
          <mxGeometry x="1350" y="600" width="90" height="100" as="geometry" />
        </mxCell>
        <mxCell id="gVJ7Yrue3Qoo17X78Tbs-19" style="edgeStyle=orthogonalEdgeStyle;rounded=0;orthogonalLoop=1;jettySize=auto;html=1;entryX=0;entryY=0.645;entryDx=0;entryDy=0;entryPerimeter=0;" edge="1" parent="1" source="gVJ7Yrue3Qoo17X78Tbs-6" target="gVJ7Yrue3Qoo17X78Tbs-16">
          <mxGeometry relative="1" as="geometry">
            <Array as="points">
              <mxPoint x="705" y="662" />
            </Array>
          </mxGeometry>
        </mxCell>
        <mxCell id="nwVHJ_DDfkLl1196NfXr-9" value="&lt;span style=&quot;font-size: 12px; background-color: rgb(251, 251, 251);&quot;&gt;No&lt;/span&gt;" style="edgeLabel;html=1;align=center;verticalAlign=middle;resizable=0;points=[];" vertex="1" connectable="0" parent="gVJ7Yrue3Qoo17X78Tbs-19">
          <mxGeometry x="-0.8967" y="1" relative="1" as="geometry">
            <mxPoint as="offset" />
          </mxGeometry>
        </mxCell>
        <mxCell id="gVJ7Yrue3Qoo17X78Tbs-20" style="edgeStyle=orthogonalEdgeStyle;rounded=0;orthogonalLoop=1;jettySize=auto;html=1;entryX=0.48;entryY=1.025;entryDx=0;entryDy=0;entryPerimeter=0;" edge="1" parent="1" source="n7ZQVAmW6PqnS9mVDtqT-8" target="gVJ7Yrue3Qoo17X78Tbs-16">
          <mxGeometry relative="1" as="geometry" />
        </mxCell>
        <mxCell id="nwVHJ_DDfkLl1196NfXr-2" value="Yes" style="edgeLabel;html=1;align=center;verticalAlign=middle;resizable=0;points=[];" vertex="1" connectable="0" parent="gVJ7Yrue3Qoo17X78Tbs-20">
          <mxGeometry x="-0.7232" y="-1" relative="1" as="geometry">
            <mxPoint as="offset" />
          </mxGeometry>
        </mxCell>
        <mxCell id="gVJ7Yrue3Qoo17X78Tbs-21" style="edgeStyle=orthogonalEdgeStyle;rounded=0;orthogonalLoop=1;jettySize=auto;html=1;entryX=0.046;entryY=0.505;entryDx=0;entryDy=0;entryPerimeter=0;" edge="1" parent="1" source="gVJ7Yrue3Qoo17X78Tbs-16" target="gVJ7Yrue3Qoo17X78Tbs-17">
          <mxGeometry relative="1" as="geometry" />
        </mxCell>
        <mxCell id="gVJ7Yrue3Qoo17X78Tbs-22" style="edgeStyle=orthogonalEdgeStyle;rounded=0;orthogonalLoop=1;jettySize=auto;html=1;entryX=-0.018;entryY=0.504;entryDx=0;entryDy=0;entryPerimeter=0;endArrow=none;startFill=0;" edge="1" parent="1" source="gVJ7Yrue3Qoo17X78Tbs-17" target="gVJ7Yrue3Qoo17X78Tbs-18">
          <mxGeometry relative="1" as="geometry" />
        </mxCell>
        <mxCell id="gVJ7Yrue3Qoo17X78Tbs-23" style="edgeStyle=orthogonalEdgeStyle;rounded=0;orthogonalLoop=1;jettySize=auto;html=1;entryX=-0.012;entryY=0.495;entryDx=0;entryDy=0;entryPerimeter=0;dashed=1;" edge="1" parent="1" source="gVJ7Yrue3Qoo17X78Tbs-18" target="MZlkSf76wRMqi1w8Q-Zd-5">
          <mxGeometry relative="1" as="geometry" />
        </mxCell>
        <mxCell id="gVJ7Yrue3Qoo17X78Tbs-24" value="Redirect" style="text;html=1;align=center;verticalAlign=middle;resizable=0;points=[];autosize=1;strokeColor=none;fillColor=none;" vertex="1" parent="1">
          <mxGeometry x="1480" y="620" width="70" height="30" as="geometry" />
        </mxCell>
        <mxCell id="gVJ7Yrue3Qoo17X78Tbs-25" style="edgeStyle=orthogonalEdgeStyle;rounded=0;orthogonalLoop=1;jettySize=auto;html=1;entryX=0.429;entryY=1;entryDx=0;entryDy=0;entryPerimeter=0;" edge="1" parent="1">
          <mxGeometry relative="1" as="geometry">
            <mxPoint x="539.98" y="910" as="sourcePoint" />
            <mxPoint x="1200.0100000000002" y="1200" as="targetPoint" />
            <Array as="points">
              <mxPoint x="539.98" y="950" />
              <mxPoint x="359.98" y="950" />
              <mxPoint x="359.98" y="1360" />
              <mxPoint x="1199.98" y="1360" />
            </Array>
          </mxGeometry>
        </mxCell>
        <mxCell id="gVJ7Yrue3Qoo17X78Tbs-26" value="&lt;font style=&quot;font-size: 11px;&quot;&gt;Is the photo in the correct format ?&lt;/font&gt;" style="ellipse;shape=umlControl;whiteSpace=wrap;html=1;fillColor=#e51400;fontColor=#ffffff;strokeColor=#B20000;textShadow=1;" vertex="1" parent="1">
          <mxGeometry x="1160" y="930" width="80" height="90" as="geometry" />
        </mxCell>
        <mxCell id="gVJ7Yrue3Qoo17X78Tbs-28" style="edgeStyle=orthogonalEdgeStyle;rounded=0;orthogonalLoop=1;jettySize=auto;html=1;entryX=0.555;entryY=1;entryDx=0;entryDy=0;entryPerimeter=0;exitX=0.504;exitY=0.074;exitDx=0;exitDy=0;exitPerimeter=0;" edge="1" parent="1" source="n7ZQVAmW6PqnS9mVDtqT-5" target="gVJ7Yrue3Qoo17X78Tbs-26">
          <mxGeometry relative="1" as="geometry" />
        </mxCell>
        <mxCell id="gVJ7Yrue3Qoo17X78Tbs-29" style="edgeStyle=orthogonalEdgeStyle;rounded=0;orthogonalLoop=1;jettySize=auto;html=1;entryX=1;entryY=0.75;entryDx=0;entryDy=0;entryPerimeter=0;" edge="1" parent="1" source="gVJ7Yrue3Qoo17X78Tbs-26" target="gVJ7Yrue3Qoo17X78Tbs-16">
          <mxGeometry relative="1" as="geometry" />
        </mxCell>
        <mxCell id="nwVHJ_DDfkLl1196NfXr-3" value="Yes" style="edgeLabel;html=1;align=center;verticalAlign=middle;resizable=0;points=[];" vertex="1" connectable="0" parent="gVJ7Yrue3Qoo17X78Tbs-29">
          <mxGeometry x="-0.596" relative="1" as="geometry">
            <mxPoint as="offset" />
          </mxGeometry>
        </mxCell>
        <mxCell id="gVJ7Yrue3Qoo17X78Tbs-32" value="Show&amp;nbsp;" style="ellipse;shape=umlControl;whiteSpace=wrap;html=1;fillColor=#e51400;fontColor=#ffffff;strokeColor=#B20000;textShadow=1;" vertex="1" parent="1">
          <mxGeometry x="1340" y="940" width="70" height="80" as="geometry" />
        </mxCell>
        <mxCell id="gVJ7Yrue3Qoo17X78Tbs-33" style="edgeStyle=orthogonalEdgeStyle;rounded=0;orthogonalLoop=1;jettySize=auto;html=1;entryX=0.017;entryY=0.49;entryDx=0;entryDy=0;entryPerimeter=0;fillColor=#e51400;strokeColor=#B20000;" edge="1" parent="1" source="gVJ7Yrue3Qoo17X78Tbs-26" target="gVJ7Yrue3Qoo17X78Tbs-32">
          <mxGeometry relative="1" as="geometry">
            <Array as="points">
              <mxPoint x="1270" y="979" />
              <mxPoint x="1270" y="979" />
            </Array>
          </mxGeometry>
        </mxCell>
        <mxCell id="nwVHJ_DDfkLl1196NfXr-4" value="No" style="edgeLabel;html=1;align=center;verticalAlign=middle;resizable=0;points=[];" vertex="1" connectable="0" parent="gVJ7Yrue3Qoo17X78Tbs-33">
          <mxGeometry x="-0.1048" y="-1" relative="1" as="geometry">
            <mxPoint as="offset" />
          </mxGeometry>
        </mxCell>
        <mxCell id="gVJ7Yrue3Qoo17X78Tbs-36" style="edgeStyle=orthogonalEdgeStyle;rounded=0;orthogonalLoop=1;jettySize=auto;html=1;fillColor=#e51400;strokeColor=#B20000;endArrow=none;startFill=0;" edge="1" parent="1" source="gVJ7Yrue3Qoo17X78Tbs-34">
          <mxGeometry relative="1" as="geometry">
            <mxPoint x="1574.9999999999995" y="1140" as="targetPoint" />
          </mxGeometry>
        </mxCell>
        <mxCell id="gVJ7Yrue3Qoo17X78Tbs-34" value="Error Message &quot;Please select a valid photo&quot;" style="ellipse;shape=umlControl;whiteSpace=wrap;html=1;fillColor=#e51400;fontColor=#ffffff;strokeColor=#B20000;textShadow=1;" vertex="1" parent="1">
          <mxGeometry x="1530" y="930" width="90" height="100" as="geometry" />
        </mxCell>
        <mxCell id="gVJ7Yrue3Qoo17X78Tbs-35" style="edgeStyle=orthogonalEdgeStyle;rounded=0;orthogonalLoop=1;jettySize=auto;html=1;entryX=0.009;entryY=0.508;entryDx=0;entryDy=0;entryPerimeter=0;fillColor=#e51400;strokeColor=#B20000;endArrow=none;startFill=0;" edge="1" parent="1" source="gVJ7Yrue3Qoo17X78Tbs-32" target="gVJ7Yrue3Qoo17X78Tbs-34">
          <mxGeometry relative="1" as="geometry" />
        </mxCell>
        <mxCell id="gVJ7Yrue3Qoo17X78Tbs-37" value="Await correct user input" style="ellipse;shape=umlControl;whiteSpace=wrap;html=1;fillColor=#e51400;fontColor=#ffffff;strokeColor=#B20000;textShadow=1;" vertex="1" parent="1">
          <mxGeometry x="1540" y="1130" width="70" height="80" as="geometry" />
        </mxCell>
        <mxCell id="gVJ7Yrue3Qoo17X78Tbs-38" style="edgeStyle=orthogonalEdgeStyle;rounded=0;orthogonalLoop=1;jettySize=auto;html=1;entryX=1.022;entryY=0.617;entryDx=0;entryDy=0;entryPerimeter=0;fillColor=#e51400;strokeColor=#B20000;" edge="1" parent="1" source="gVJ7Yrue3Qoo17X78Tbs-37" target="n7ZQVAmW6PqnS9mVDtqT-5">
          <mxGeometry relative="1" as="geometry" />
        </mxCell>
        <mxCell id="nwVHJ_DDfkLl1196NfXr-7" value="&lt;span style=&quot;font-size: 12px; background-color: rgb(251, 251, 251);&quot;&gt;prompt user to choose correct avatar&lt;/span&gt;" style="edgeLabel;html=1;align=center;verticalAlign=middle;resizable=0;points=[];" vertex="1" connectable="0" parent="gVJ7Yrue3Qoo17X78Tbs-38">
          <mxGeometry x="0.0928" y="2" relative="1" as="geometry">
            <mxPoint x="17" y="-1" as="offset" />
          </mxGeometry>
        </mxCell>
        <mxCell id="gVJ7Yrue3Qoo17X78Tbs-40" value="&lt;span style=&quot;color: rgb(0, 0, 0); font-family: Helvetica; font-size: 12px; font-style: normal; font-variant-ligatures: normal; font-variant-caps: normal; font-weight: 400; letter-spacing: normal; orphans: 2; text-align: center; text-indent: 0px; text-transform: none; widows: 2; word-spacing: 0px; -webkit-text-stroke-width: 0px; white-space: nowrap; background-color: rgb(251, 251, 251); text-decoration-thickness: initial; text-decoration-style: initial; text-decoration-color: initial; display: inline !important; float: none;&quot;&gt;prompt user to enter valid number&lt;/span&gt;" style="text;whiteSpace=wrap;html=1;" vertex="1" parent="1">
          <mxGeometry x="530" y="965" width="180" height="30" as="geometry" />
        </mxCell>
        <mxCell id="nwVHJ_DDfkLl1196NfXr-10" value="Change Username selection" style="text;html=1;align=center;verticalAlign=middle;resizable=0;points=[];autosize=1;strokeColor=none;fillColor=none;rotation=-90;" vertex="1" parent="1">
          <mxGeometry x="430" y="690" width="170" height="30" as="geometry" />
        </mxCell>
        <mxCell id="nwVHJ_DDfkLl1196NfXr-11" value="&lt;span style=&quot;color: rgb(0, 0, 0); font-family: Helvetica; font-style: normal; font-variant-ligatures: normal; font-variant-caps: normal; font-weight: 400; letter-spacing: normal; orphans: 2; text-align: center; text-indent: 0px; text-transform: none; widows: 2; word-spacing: 0px; -webkit-text-stroke-width: 0px; white-space: nowrap; background-color: rgb(251, 251, 251); text-decoration-thickness: initial; text-decoration-style: initial; text-decoration-color: initial; float: none; display: inline !important;&quot;&gt;&lt;font style=&quot;font-size: 10px;&quot;&gt;Change Mobile Number selection&lt;/font&gt;&lt;/span&gt;" style="text;whiteSpace=wrap;html=1;" vertex="1" parent="1">
          <mxGeometry x="560" y="810" width="150" height="20" as="geometry" />
        </mxCell>
        <mxCell id="nwVHJ_DDfkLl1196NfXr-12" value="&lt;span style=&quot;color: rgb(0, 0, 0); font-family: Helvetica; font-size: 10px; font-style: normal; font-variant-ligatures: normal; font-variant-caps: normal; font-weight: 400; letter-spacing: normal; orphans: 2; text-align: center; text-indent: 0px; text-transform: none; widows: 2; word-spacing: 0px; -webkit-text-stroke-width: 0px; white-space: nowrap; background-color: rgb(251, 251, 251); text-decoration-thickness: initial; text-decoration-style: initial; text-decoration-color: initial; display: inline !important; float: none;&quot;&gt;Change Avatar selection&lt;/span&gt;" style="text;whiteSpace=wrap;html=1;" vertex="1" parent="1">
          <mxGeometry x="680" y="1320" width="110" height="30" as="geometry" />
        </mxCell>
      </root>
    </mxGraphModel>
  </diagram>
</mxfile>
